<svg xmlns="http://www.w3.org/2000/svg" xmlns:xlink="http://www.w3.org/1999/xlink" width="50" zoomAndPan="magnify" viewBox="0 0 37.5 37.499999" height="20" preserveAspectRatio="xMidYMid meet" version="1.0"><defs><clipPath id="9222b4ae52"><path d="M 2.402344 17.855469 L 33.488281 17.855469 L 33.488281 19.335938 L 2.402344 19.335938 Z M 2.402344 17.855469 " clip-rule="nonzero"/></clipPath><clipPath id="0e278f9e4a"><path d="M 2.402344 18 L 5 18 L 5 19 L 2.402344 19 Z M 2.402344 18 " clip-rule="nonzero"/></clipPath></defs><g clip-path="url(#9222b4ae52)"><path fill="#4a4a4a" d="M 6.128906 18.152344 C 6.167969 18.125 6.207031 18.078125 6.246094 18.078125 C 6.59375 18.066406 6.941406 18.0625 7.289062 18.058594 C 7.402344 18.058594 7.511719 18.085938 7.625 18.082031 C 7.796875 18.074219 7.96875 18.046875 8.140625 18.035156 C 8.3125 18.027344 8.492188 18.007812 8.65625 18.042969 C 8.730469 18.058594 8.78125 18.046875 8.84375 18.039062 C 8.867188 18.039062 8.890625 18.066406 8.914062 18.066406 C 8.941406 18.070312 8.972656 18.058594 9 18.050781 C 9.019531 18.042969 9.039062 18.019531 9.054688 18.023438 C 9.273438 18.09375 9.503906 17.992188 9.726562 18.058594 C 9.769531 18.074219 9.828125 18.035156 9.878906 18.039062 C 9.949219 18.042969 10.019531 18.0625 10.101562 18.078125 C 10.101562 18.085938 10.109375 18.046875 10.117188 18.046875 C 10.285156 18.046875 10.449219 18.054688 10.617188 18.058594 C 10.832031 18.058594 11.050781 18.058594 11.265625 18.066406 C 11.535156 18.074219 11.808594 18.085938 12.082031 18.097656 C 12.144531 18.097656 12.207031 18.085938 12.273438 18.085938 C 12.304688 18.085938 12.332031 18.113281 12.363281 18.113281 C 12.394531 18.117188 12.429688 18.101562 12.460938 18.097656 C 12.515625 18.089844 12.578125 18.070312 12.632812 18.085938 C 12.789062 18.125 12.941406 18.058594 13.085938 18.078125 C 13.160156 18.085938 13.222656 18.078125 13.289062 18.070312 C 13.3125 18.070312 13.339844 18.125 13.363281 18.125 C 13.414062 18.125 13.464844 18.105469 13.519531 18.09375 C 13.519531 18.082031 13.523438 18.070312 13.523438 18.054688 C 13.550781 18.078125 13.574219 18.101562 13.601562 18.128906 C 13.617188 18.113281 13.636719 18.089844 13.660156 18.0625 C 13.691406 18.085938 13.722656 18.128906 13.757812 18.132812 C 13.789062 18.132812 13.820312 18.09375 13.859375 18.070312 C 13.933594 18.085938 14.011719 18.203125 14.101562 18.070312 C 14.117188 18.046875 14.21875 18.082031 14.277344 18.101562 C 14.3125 18.097656 14.351562 18.085938 14.382812 18.089844 C 14.5 18.105469 14.605469 18.085938 14.722656 18.066406 C 14.882812 18.039062 15.050781 18.050781 15.214844 18.042969 C 15.277344 18.039062 15.335938 18.015625 15.398438 18.015625 C 15.453125 18.011719 15.507812 18.03125 15.566406 18.042969 C 15.582031 18.027344 15.605469 17.992188 15.632812 17.992188 C 15.71875 17.988281 15.804688 18.007812 15.890625 18.007812 C 15.945312 18.007812 15.996094 17.964844 16.046875 17.96875 C 16.1875 17.972656 16.332031 17.988281 16.476562 17.996094 C 16.507812 17.996094 16.535156 17.96875 16.570312 17.964844 C 16.609375 17.957031 16.652344 17.949219 16.6875 17.960938 C 16.796875 18 16.925781 18.007812 17.015625 17.972656 C 17.140625 17.925781 17.25 17.980469 17.371094 17.964844 C 17.546875 17.9375 17.734375 17.960938 17.917969 17.953125 C 17.960938 17.953125 18.019531 17.898438 18.050781 17.914062 C 18.191406 17.984375 18.339844 17.9375 18.480469 17.957031 C 18.511719 17.960938 18.546875 17.929688 18.582031 17.921875 C 18.628906 17.914062 18.6875 17.890625 18.71875 17.910156 C 18.832031 17.980469 18.941406 17.960938 19.050781 17.914062 C 19.148438 17.871094 19.234375 17.863281 19.308594 17.957031 C 19.332031 17.929688 19.351562 17.90625 19.371094 17.882812 C 19.449219 17.917969 19.511719 17.984375 19.605469 17.894531 C 19.636719 17.863281 19.734375 17.910156 19.800781 17.90625 C 19.929688 17.902344 20.058594 17.878906 20.1875 17.875 C 20.261719 17.871094 20.355469 17.859375 20.402344 17.898438 C 20.511719 17.988281 20.625 17.898438 20.726562 17.9375 C 20.855469 17.984375 20.984375 17.863281 21.121094 17.945312 C 21.160156 17.96875 21.234375 17.921875 21.292969 17.914062 C 21.332031 17.90625 21.378906 17.898438 21.417969 17.910156 C 21.585938 17.972656 21.757812 17.902344 21.925781 17.917969 C 22.050781 17.929688 22.175781 17.953125 22.296875 17.972656 C 22.300781 17.972656 22.308594 17.980469 22.308594 17.980469 C 22.425781 17.855469 22.582031 18.058594 22.703125 17.9375 C 23.082031 17.980469 23.457031 17.910156 23.839844 17.9375 C 24.164062 17.960938 24.492188 17.9375 24.820312 17.933594 C 24.917969 17.933594 25.015625 17.921875 25.113281 17.925781 C 25.160156 17.929688 25.203125 17.960938 25.242188 17.976562 C 25.292969 17.964844 25.351562 17.933594 25.40625 17.933594 C 25.574219 17.9375 25.746094 17.960938 25.914062 17.957031 C 26.078125 17.953125 26.246094 17.914062 26.410156 17.914062 C 26.617188 17.914062 26.820312 17.9375 27.027344 17.9375 C 27.242188 17.9375 27.453125 17.914062 27.667969 17.914062 C 28.011719 17.910156 28.355469 17.921875 28.695312 17.921875 C 28.988281 17.921875 29.277344 17.910156 29.570312 17.910156 C 29.816406 17.914062 30.058594 17.925781 30.304688 17.933594 C 30.667969 17.949219 31.03125 17.972656 31.390625 17.976562 C 31.691406 17.980469 31.996094 17.953125 32.296875 17.945312 C 32.4375 17.941406 32.578125 17.945312 32.71875 17.960938 C 32.757812 17.964844 32.796875 18.003906 32.835938 18.03125 C 32.835938 18.046875 32.832031 18.066406 32.828125 18.085938 C 32.710938 18.097656 32.589844 18.109375 32.457031 18.125 C 32.480469 18.160156 32.503906 18.230469 32.535156 18.234375 C 32.675781 18.246094 32.632812 18.355469 32.652344 18.429688 C 32.65625 18.453125 32.648438 18.476562 32.648438 18.464844 C 32.761719 18.53125 32.851562 18.589844 32.949219 18.648438 C 32.949219 18.648438 32.957031 18.628906 32.96875 18.601562 C 33.101562 18.777344 32.859375 18.695312 32.855469 18.78125 C 32.878906 18.789062 32.902344 18.792969 32.929688 18.796875 C 32.894531 18.824219 32.863281 18.847656 32.820312 18.882812 C 32.875 18.890625 32.914062 18.894531 32.964844 18.902344 C 32.949219 18.929688 32.9375 18.953125 32.929688 18.953125 C 32.863281 18.941406 32.796875 18.992188 32.746094 18.988281 C 32.539062 18.980469 32.339844 19.035156 32.132812 19.03125 C 32.050781 19.03125 31.972656 19.046875 31.894531 19.042969 C 31.859375 19.039062 31.832031 19.003906 31.792969 18.976562 C 31.6875 19.054688 31.574219 19.074219 31.480469 18.992188 C 31.382812 19.015625 31.304688 19.046875 31.222656 19.046875 C 31.097656 19.046875 30.96875 19.023438 30.839844 19.019531 C 30.683594 19.015625 30.527344 19.027344 30.371094 19.03125 C 30.3125 19.03125 30.253906 19.011719 30.195312 19.011719 C 30.15625 19.015625 30.117188 19.046875 30.074219 19.042969 C 29.960938 19.042969 29.84375 19.023438 29.730469 19.023438 C 29.652344 19.019531 29.578125 19.039062 29.5 19.039062 C 29.460938 19.039062 29.417969 19.019531 29.367188 19.003906 C 29.332031 19.078125 28.746094 19.066406 28.675781 18.984375 C 28.621094 19.007812 28.574219 19.039062 28.527344 19.042969 C 28.472656 19.046875 28.417969 19.023438 28.367188 19.015625 C 28.273438 19.019531 28.179688 19.023438 28.085938 19.023438 C 27.941406 19.019531 27.796875 18.945312 27.648438 19.019531 C 27.625 19.03125 27.582031 19.03125 27.5625 19.015625 C 27.519531 18.976562 27.488281 18.972656 27.441406 19.015625 C 27.429688 19.027344 27.371094 18.988281 27.332031 18.972656 C 27.324219 18.984375 27.308594 19.003906 27.292969 19.023438 C 27.292969 19.003906 27.289062 18.984375 27.285156 18.9375 C 27.21875 18.96875 27.15625 19 27.089844 19.019531 C 27.078125 19.023438 27.054688 18.980469 27.03125 18.976562 C 26.953125 18.964844 26.871094 18.960938 26.792969 18.960938 C 26.640625 18.957031 26.484375 18.957031 26.328125 18.964844 C 26.269531 18.96875 26.207031 18.992188 26.148438 19.015625 C 26.105469 19.027344 26.109375 19.03125 26.0625 18.988281 C 26.054688 18.976562 26.011719 18.976562 26.007812 18.984375 C 25.9375 19.121094 25.847656 19.019531 25.765625 19.003906 C 25.734375 19 25.691406 18.972656 25.675781 18.984375 C 25.550781 19.085938 25.414062 19.035156 25.273438 19.035156 C 25.003906 19.03125 24.730469 19.046875 24.460938 19.046875 C 24.148438 19.046875 23.835938 19.042969 23.527344 19.039062 C 23.480469 19.035156 23.4375 19.003906 23.390625 19 C 23.316406 18.996094 23.242188 19.007812 23.167969 19.011719 C 23.144531 19.011719 23.125 19.007812 23.101562 19.007812 C 23.042969 19.007812 22.984375 19.007812 22.917969 19.007812 C 22.925781 19.035156 22.875 19.015625 22.867188 19.015625 C 22.855469 19.015625 22.84375 19.003906 22.832031 19.003906 C 22.796875 19.007812 22.765625 19.011719 22.734375 19.019531 C 22.714844 19.023438 22.683594 19.042969 22.675781 19.035156 C 22.570312 18.957031 22.429688 19.09375 22.332031 18.980469 C 22.324219 18.972656 22.300781 18.972656 22.296875 18.976562 C 22.199219 19.09375 22.101562 18.992188 22.003906 18.980469 C 21.96875 18.976562 21.933594 19.003906 21.898438 19.011719 C 21.84375 19.019531 21.761719 19.042969 21.738281 19.015625 C 21.675781 18.957031 21.644531 18.984375 21.589844 19.015625 C 21.5625 19.03125 21.515625 19.023438 21.464844 19.023438 C 21.480469 19 21.488281 18.984375 21.503906 18.960938 L 21.34375 18.960938 C 21.351562 18.972656 21.363281 18.984375 21.375 19 C 21.371094 19.007812 21.367188 19.019531 21.363281 19.027344 C 21.320312 19.007812 21.277344 18.992188 21.234375 18.972656 C 21.207031 19.007812 21.207031 19.007812 21.152344 18.972656 C 21.140625 18.960938 21.113281 18.949219 21.109375 18.953125 C 21.015625 19.070312 20.882812 18.945312 20.796875 19.007812 C 20.777344 18.984375 20.761719 18.953125 20.75 18.953125 C 20.601562 18.964844 20.453125 18.996094 20.308594 18.988281 C 20.210938 18.984375 20.117188 18.992188 20.023438 18.980469 C 20.003906 18.976562 19.984375 18.949219 19.957031 18.921875 C 19.90625 18.984375 19.855469 19.027344 19.773438 18.957031 C 19.75 18.933594 19.679688 18.957031 19.632812 18.960938 C 19.539062 18.964844 19.414062 19.011719 19.359375 18.964844 C 19.261719 18.882812 19.195312 18.988281 19.113281 18.96875 C 19.007812 18.945312 18.894531 18.949219 18.785156 18.953125 C 18.585938 18.957031 18.386719 18.96875 18.1875 18.972656 C 18.09375 18.972656 18 18.953125 17.90625 18.953125 C 17.824219 18.953125 17.742188 18.972656 17.660156 18.976562 C 17.613281 18.980469 17.554688 18.992188 17.519531 18.96875 C 17.476562 18.945312 17.449219 18.882812 17.421875 18.976562 C 17.40625 18.964844 17.386719 18.949219 17.359375 18.929688 C 17.335938 18.945312 17.304688 18.96875 17.269531 18.996094 C 17.183594 18.949219 17.097656 18.9375 16.992188 18.976562 C 16.902344 19.011719 16.789062 18.976562 16.6875 18.972656 C 16.605469 18.972656 16.519531 18.972656 16.433594 18.976562 C 16.109375 18.984375 15.78125 18.988281 15.453125 19.003906 C 15.246094 19.011719 15.042969 19.046875 14.835938 19.054688 C 14.671875 19.0625 14.507812 19.050781 14.34375 19.054688 C 14.304688 19.054688 14.265625 19.074219 14.203125 19.089844 C 14.152344 19.054688 14.085938 19.046875 13.984375 19.09375 C 13.890625 19.136719 13.765625 19.117188 13.652344 19.121094 C 13.648438 19.121094 13.640625 19.082031 13.632812 19.046875 C 13.601562 19.082031 13.578125 19.105469 13.546875 19.136719 C 13.476562 19.003906 13.367188 19.097656 13.273438 19.09375 C 13.261719 19.089844 13.242188 19.121094 13.238281 19.121094 C 13.152344 19.054688 13.070312 19.089844 12.980469 19.097656 C 12.878906 19.105469 12.78125 19.066406 12.679688 19.058594 C 12.652344 19.054688 12.617188 19.082031 12.574219 19.101562 C 12.574219 19.105469 12.566406 19.082031 12.554688 19.042969 C 12.527344 19.074219 12.507812 19.097656 12.488281 19.121094 C 12.417969 19.03125 12.410156 19.03125 12.316406 19.082031 C 12.304688 19.089844 12.289062 19.089844 12.273438 19.09375 C 12.226562 19.097656 12.179688 19.105469 12.132812 19.101562 C 12.027344 19.101562 11.925781 19.085938 11.820312 19.089844 C 11.722656 19.089844 11.628906 19.105469 11.523438 19.117188 C 11.523438 19.101562 11.523438 19.085938 11.523438 19.085938 C 11.464844 19.078125 11.410156 19.0625 11.355469 19.058594 C 11.3125 19.054688 11.265625 19.066406 11.21875 19.0625 C 11.074219 19.058594 10.929688 19.0625 10.785156 19.039062 C 10.660156 19.019531 10.515625 19.011719 10.410156 19.042969 C 10.257812 19.089844 10.121094 18.984375 9.976562 19.046875 C 9.949219 19.058594 9.902344 19.015625 9.867188 19.019531 C 9.808594 19.023438 9.75 19.046875 9.675781 19.066406 C 9.644531 19.046875 9.609375 18.925781 9.539062 19.046875 C 9.535156 19.054688 9.515625 19.058594 9.507812 19.054688 C 9.339844 18.996094 9.167969 19.058594 8.996094 19.042969 C 8.808594 19.023438 8.621094 19.046875 8.4375 19.019531 C 8.320312 19 8.199219 19.0625 8.082031 18.980469 C 8.039062 18.953125 7.941406 19.027344 7.878906 19.011719 C 7.761719 18.980469 7.648438 19.011719 7.535156 19.015625 C 7.414062 19.019531 7.289062 18.996094 7.167969 18.988281 C 7.09375 18.980469 7.019531 18.980469 6.949219 18.980469 C 6.660156 18.980469 6.375 18.992188 6.085938 18.984375 C 5.945312 18.980469 5.808594 18.9375 5.667969 18.925781 C 5.554688 18.917969 5.4375 18.933594 5.320312 18.929688 C 5.0625 18.921875 4.804688 18.910156 4.546875 18.886719 C 4.261719 18.863281 3.976562 18.824219 3.695312 18.789062 C 3.515625 18.769531 3.335938 18.757812 3.160156 18.71875 C 3 18.6875 2.84375 18.625 2.691406 18.566406 C 2.664062 18.554688 2.609375 18.523438 2.625 18.445312 C 2.652344 18.332031 2.601562 18.203125 2.710938 18.097656 C 2.707031 18.3125 2.890625 18.234375 2.992188 18.273438 C 3.09375 18.3125 3.21875 18.28125 3.324219 18.296875 C 3.515625 18.324219 3.703125 18.316406 3.894531 18.332031 C 3.96875 18.335938 4.042969 18.34375 4.117188 18.351562 C 4.15625 18.355469 4.199219 18.363281 4.25 18.375 C 4.296875 18.269531 4.378906 18.367188 4.453125 18.363281 C 4.484375 18.363281 4.519531 18.363281 4.542969 18.347656 C 4.5625 18.332031 4.5625 18.296875 4.570312 18.269531 C 4.535156 18.265625 4.503906 18.261719 4.46875 18.257812 C 4.367188 18.242188 4.246094 18.296875 4.164062 18.195312 C 4.167969 18.179688 4.171875 18.164062 4.175781 18.148438 C 4.234375 18.15625 4.292969 18.167969 4.351562 18.175781 C 4.351562 18.171875 4.347656 18.171875 4.347656 18.167969 C 4.398438 18.164062 4.449219 18.164062 4.503906 18.160156 C 4.5 18.164062 4.5 18.171875 4.5 18.175781 C 4.53125 18.164062 4.5625 18.140625 4.597656 18.136719 C 4.992188 18.125 5.390625 18.113281 5.789062 18.097656 C 5.851562 18.097656 5.914062 18.078125 5.972656 18.085938 C 6.027344 18.09375 6.078125 18.125 6.132812 18.148438 C 6.09375 18.191406 6.054688 18.238281 6.007812 18.289062 C 6.074219 18.292969 6.144531 18.296875 6.226562 18.304688 C 6.226562 18.277344 6.222656 18.246094 6.21875 18.21875 C 6.199219 18.230469 6.179688 18.242188 6.152344 18.253906 C 6.144531 18.21875 6.140625 18.183594 6.128906 18.148438 Z M 26.304688 18.1875 C 26.277344 18.144531 26.289062 18.082031 26.1875 18.097656 C 26.070312 18.117188 25.945312 18.085938 25.820312 18.089844 C 25.773438 18.089844 25.726562 18.132812 25.675781 18.15625 C 25.679688 18.160156 25.683594 18.167969 25.6875 18.175781 L 25.746094 18.175781 C 25.738281 18.195312 25.734375 18.214844 25.726562 18.230469 C 25.808594 18.234375 25.886719 18.238281 25.972656 18.242188 C 25.953125 18.214844 25.941406 18.195312 25.925781 18.175781 L 25.953125 18.152344 C 25.980469 18.183594 26.011719 18.214844 26.039062 18.246094 C 26.097656 18.230469 26.160156 18.160156 26.242188 18.230469 C 26.246094 18.234375 26.28125 18.203125 26.300781 18.1875 C 26.402344 18.125 26.484375 18.230469 26.589844 18.21875 C 26.574219 18.164062 26.539062 18.09375 26.523438 18.097656 C 26.445312 18.113281 26.375 18.15625 26.304688 18.1875 Z M 9.535156 18.253906 C 9.460938 18.128906 9.390625 18.121094 9.328125 18.214844 C 9.246094 18.199219 9.171875 18.191406 9.101562 18.175781 C 8.992188 18.15625 8.886719 18.164062 8.777344 18.183594 C 8.75 18.1875 8.726562 18.234375 8.703125 18.253906 C 8.855469 18.261719 8.996094 18.269531 9.140625 18.28125 C 9.140625 18.300781 9.144531 18.328125 9.144531 18.34375 C 9.238281 18.316406 9.328125 18.285156 9.417969 18.269531 C 9.449219 18.265625 9.484375 18.308594 9.535156 18.339844 C 9.535156 18.300781 9.535156 18.277344 9.535156 18.253906 C 9.621094 18.265625 9.707031 18.289062 9.792969 18.292969 C 9.835938 18.296875 9.878906 18.355469 9.9375 18.285156 C 9.957031 18.257812 10.070312 18.304688 10.140625 18.320312 C 10.164062 18.324219 10.179688 18.34375 10.203125 18.355469 C 10.203125 18.328125 10.207031 18.304688 10.207031 18.261719 C 10.269531 18.289062 10.324219 18.316406 10.390625 18.34375 L 10.390625 18.214844 C 10.347656 18.214844 10.304688 18.222656 10.261719 18.222656 C 10.234375 18.21875 10.207031 18.203125 10.179688 18.199219 C 10.15625 18.195312 10.128906 18.203125 10.101562 18.199219 C 10.019531 18.179688 9.914062 18.3125 9.859375 18.167969 C 9.820312 18.183594 9.769531 18.214844 9.757812 18.203125 C 9.65625 18.117188 9.601562 18.203125 9.535156 18.253906 Z M 14.941406 18.164062 C 14.933594 18.171875 14.925781 18.191406 14.914062 18.191406 C 14.71875 18.210938 14.511719 18.113281 14.320312 18.238281 C 14.316406 18.242188 14.300781 18.222656 14.289062 18.222656 C 14.222656 18.214844 14.15625 18.199219 14.089844 18.199219 C 14.015625 18.203125 13.945312 18.226562 13.871094 18.226562 C 13.757812 18.226562 13.640625 18.214844 13.527344 18.214844 C 13.457031 18.210938 13.386719 18.214844 13.320312 18.214844 C 13.257812 18.214844 13.199219 18.210938 13.136719 18.214844 C 13.109375 18.21875 13.078125 18.234375 13.054688 18.253906 C 13.042969 18.257812 13.046875 18.300781 13.054688 18.304688 C 13.132812 18.34375 13.214844 18.382812 13.296875 18.410156 C 13.308594 18.417969 13.332031 18.382812 13.355469 18.371094 C 13.382812 18.355469 13.421875 18.324219 13.4375 18.332031 C 13.503906 18.367188 13.515625 18.371094 13.523438 18.351562 C 13.589844 18.371094 13.65625 18.414062 13.703125 18.398438 C 13.808594 18.371094 13.910156 18.375 14.015625 18.375 C 14.25 18.378906 14.480469 18.367188 14.710938 18.363281 C 14.726562 18.363281 14.738281 18.34375 14.753906 18.339844 C 14.789062 18.328125 14.828125 18.328125 14.863281 18.3125 C 14.890625 18.296875 14.917969 18.269531 14.933594 18.242188 C 14.949219 18.222656 14.941406 18.1875 14.945312 18.160156 C 14.960938 18.226562 14.976562 18.289062 14.996094 18.375 C 15.082031 18.351562 15.183594 18.320312 15.289062 18.292969 C 15.285156 18.300781 15.277344 18.316406 15.265625 18.347656 C 15.414062 18.277344 15.554688 18.160156 15.703125 18.335938 C 15.726562 18.3125 15.746094 18.285156 15.773438 18.253906 C 15.789062 18.277344 15.800781 18.296875 15.820312 18.328125 C 15.886719 18.160156 15.960938 18.300781 16.03125 18.308594 C 16.027344 18.285156 16.027344 18.265625 16.023438 18.25 C 16.105469 18.238281 16.179688 18.222656 16.253906 18.210938 C 16.257812 18.199219 16.261719 18.183594 16.265625 18.167969 C 16.238281 18.15625 16.210938 18.132812 16.183594 18.132812 C 16.074219 18.140625 15.964844 18.15625 15.859375 18.175781 C 15.707031 18.203125 15.542969 18.175781 15.386719 18.171875 C 15.238281 18.167969 15.089844 18.164062 14.945312 18.164062 Z M 16.625 18.214844 C 16.664062 18.21875 16.691406 18.226562 16.722656 18.226562 C 16.773438 18.226562 16.824219 18.21875 16.875 18.21875 C 17.003906 18.222656 17.136719 18.234375 17.265625 18.238281 C 17.351562 18.238281 17.4375 18.230469 17.523438 18.230469 C 17.632812 18.234375 17.753906 18.28125 17.808594 18.160156 C 17.851562 18.1875 17.890625 18.210938 17.929688 18.234375 C 17.9375 18.222656 17.945312 18.214844 17.949219 18.203125 C 17.9375 18.191406 17.921875 18.183594 17.890625 18.160156 C 17.96875 18.171875 18.046875 18.160156 18.082031 18.191406 C 18.15625 18.261719 18.195312 18.242188 18.230469 18.199219 C 18.292969 18.214844 18.355469 18.226562 18.429688 18.242188 C 18.414062 18.207031 18.40625 18.1875 18.390625 18.136719 C 18.441406 18.175781 18.464844 18.203125 18.492188 18.207031 C 18.515625 18.210938 18.546875 18.191406 18.574219 18.179688 C 18.585938 18.195312 18.609375 18.21875 18.625 18.234375 C 18.78125 18.144531 18.929688 18.195312 19.082031 18.222656 C 19.128906 18.125 19.214844 18.152344 19.296875 18.160156 C 19.398438 18.171875 19.5 18.191406 19.605469 18.191406 C 19.667969 18.191406 19.742188 18.191406 19.800781 18.144531 C 19.808594 18.136719 19.835938 18.144531 19.84375 18.152344 C 19.894531 18.199219 20.039062 18.222656 20.101562 18.207031 C 20.160156 18.191406 20.226562 18.191406 20.289062 18.191406 C 20.3125 18.191406 20.339844 18.210938 20.363281 18.214844 C 20.507812 18.222656 20.652344 18.242188 20.792969 18.234375 C 20.976562 18.222656 21.160156 18.28125 21.34375 18.199219 C 21.421875 18.164062 21.53125 18.191406 21.625 18.195312 C 21.640625 18.195312 21.65625 18.210938 21.671875 18.21875 C 21.703125 18.234375 21.734375 18.261719 21.761719 18.257812 C 21.90625 18.242188 21.851562 18.144531 21.84375 18.066406 C 21.734375 18.066406 21.628906 18.0625 21.523438 18.066406 C 21.386719 18.070312 21.246094 18.082031 21.105469 18.078125 C 20.945312 18.070312 20.78125 18.027344 20.625 18.039062 C 20.460938 18.054688 20.292969 17.984375 20.132812 18.066406 C 19.949219 17.96875 19.757812 18.125 19.566406 18.039062 C 19.488281 18.007812 19.382812 18.03125 19.289062 18.035156 C 19.195312 18.035156 19.105469 18.054688 19.011719 18.054688 C 18.808594 18.054688 18.605469 18.035156 18.402344 18.039062 C 18.253906 18.039062 18.101562 18.074219 17.953125 18.074219 C 17.78125 18.074219 17.609375 18.035156 17.4375 18.039062 C 17.195312 18.042969 16.957031 18.070312 16.714844 18.085938 C 16.574219 18.097656 16.433594 18.109375 16.300781 18.125 C 16.292969 18.1875 16.285156 18.230469 16.28125 18.273438 C 16.367188 18.355469 16.457031 18.058594 16.539062 18.292969 C 16.574219 18.257812 16.605469 18.230469 16.625 18.214844 Z M 23.058594 18.167969 C 23.054688 18.152344 23.050781 18.136719 23.046875 18.121094 C 22.714844 18.109375 22.382812 18.09375 22.050781 18.078125 C 22.054688 18.109375 22.054688 18.128906 22.054688 18.144531 C 22.023438 18.128906 21.992188 18.117188 21.945312 18.09375 L 21.945312 18.234375 C 21.980469 18.226562 22.011719 18.214844 22.046875 18.210938 C 22.078125 18.210938 22.113281 18.214844 22.148438 18.222656 C 22.183594 18.230469 22.222656 18.253906 22.261719 18.261719 C 22.285156 18.265625 22.316406 18.242188 22.34375 18.242188 C 22.507812 18.246094 22.675781 18.265625 22.84375 18.257812 C 22.914062 18.253906 22.984375 18.199219 23.054688 18.167969 Z M 12.332031 18.332031 C 12.765625 18.363281 12.898438 18.351562 13.019531 18.269531 C 12.929688 18.203125 12.59375 18.195312 12.527344 18.261719 C 12.46875 18.234375 12.410156 18.207031 12.339844 18.171875 C 12.335938 18.238281 12.332031 18.285156 12.332031 18.332031 Z M 5.417969 18.257812 C 5.414062 18.265625 5.414062 18.269531 5.410156 18.273438 L 5.617188 18.359375 C 5.613281 18.351562 5.613281 18.34375 5.613281 18.335938 C 5.683594 18.320312 5.753906 18.304688 5.824219 18.289062 C 5.824219 18.28125 5.824219 18.269531 5.824219 18.257812 Z M 11.277344 18.308594 C 11.234375 18.269531 11.210938 18.238281 11.175781 18.222656 C 11.152344 18.207031 11.105469 18.195312 11.089844 18.210938 C 11.066406 18.230469 11.066406 18.269531 11.058594 18.304688 C 11.085938 18.3125 11.117188 18.324219 11.148438 18.324219 C 11.183594 18.324219 11.21875 18.316406 11.277344 18.308594 Z M 11.730469 18.390625 C 11.792969 18.347656 11.835938 18.3125 11.90625 18.261719 C 11.832031 18.25 11.773438 18.242188 11.714844 18.234375 C 11.71875 18.285156 11.726562 18.339844 11.730469 18.390625 Z M 11.730469 18.390625 " fill-opacity="1" fill-rule="nonzero"/></g><g clip-path="url(#0e278f9e4a)"><path fill="#4a4a4a" d="M 3.890625 18.332031 C 3.886719 18.175781 3.75 18.238281 3.683594 18.226562 C 3.523438 18.203125 3.351562 18.289062 3.1875 18.203125 C 3.167969 18.191406 3.128906 18.21875 3.101562 18.214844 C 3.066406 18.214844 3.03125 18.195312 2.996094 18.183594 L 3 18.148438 C 3.179688 18.148438 3.355469 18.136719 3.53125 18.152344 C 3.730469 18.167969 3.9375 18.09375 4.121094 18.203125 C 4.121094 18.214844 4.121094 18.226562 4.117188 18.238281 C 4.0625 18.234375 4.007812 18.230469 3.933594 18.222656 C 3.921875 18.25 3.90625 18.292969 3.890625 18.332031 Z M 3.890625 18.332031 " fill-opacity="1" fill-rule="nonzero"/></g></svg>