<svg xmlns="http://www.w3.org/2000/svg" xmlns:xlink="http://www.w3.org/1999/xlink" version="1.1" x="0px" y="0px" viewBox="0 0 348 630" style="enable-background:new 0 0 348 504;" xml:space="preserve"><path d="M254.892,176c0-15.439-12.69-28-28.289-28s-28.289,12.561-28.289,28s12.69,28,28.289,28S254.892,191.439,254.892,176z   M206.314,176c0-11.028,9.102-20,20.289-20s20.289,8.972,20.289,20s-9.102,20-20.289,20S206.314,187.028,206.314,176z   M23.191,281.04c0.872,0.695,1.736,1.385,2.583,2.07c0.733,0.593,1.625,0.89,2.516,0.89s1.782-0.297,2.516-0.89  c0.847-0.686,1.711-1.375,2.583-2.07c9.153-7.304,19.528-15.582,22.631-28.426c2.026-8.391-1.575-16.391-8.757-19.453  c-4.975-2.123-12.473-1.71-18.973,5.244c-6.499-6.954-13.995-7.367-18.973-5.244c-7.182,3.063-10.783,11.063-8.757,19.452  C3.662,265.458,14.037,273.736,23.191,281.04z M12.455,240.52c0.827-0.354,1.688-0.525,2.565-0.525c3.363,0,6.974,2.531,9.899,7.103  c0.735,1.148,2.005,1.844,3.369,1.844s2.634-0.695,3.369-1.844c3.689-5.765,8.469-8.279,12.465-6.577  c2.876,1.227,5.392,4.946,4.118,10.217c-2.458,10.179-11.296,17.23-19.843,24.05c-0.037,0.029-0.073,0.059-0.109,0.088  c-0.036-0.029-0.072-0.059-0.109-0.088c-8.547-6.819-17.385-13.871-19.843-24.051C7.064,245.466,9.579,241.746,12.455,240.52z   M129.398,436c0-11.028-9.059-20-20.192-20c-11.135,0-20.193,8.972-20.193,20s9.059,20,20.193,20  C120.339,456,129.398,447.028,129.398,436z M97.012,436c0-6.617,5.47-12,12.193-12c6.723,0,12.192,5.383,12.192,12  s-5.47,12-12.192,12C102.482,448,97.012,442.617,97.012,436z M323.759,172c-0.047,0-0.094,0.003-0.141,0.004  c-0.009-1.313-0.022-2.626-0.053-3.935c-1.171-49.465-17.466-93.048-45.883-122.72c-29.445-30.746-73.481-43.664-115.587-34.126  C157.798,4.487,150.216,0,141.591,0c-13.366,0-24.241,10.767-24.241,24c0,2.283,0.33,4.489,0.935,6.582  c-6.759,4.732-13.054,10.141-18.743,16.118c-19.083,20.049-32.049,43.072-43.488,63.387c-10.604,18.83-19.762,35.093-29.583,39.945  c-1.98,0.979-2.793,3.377-1.814,5.357c0.697,1.411,2.115,2.229,3.589,2.229c0.595,0,1.199-0.134,1.769-0.415  c12.037-5.946,21.293-22.383,33.011-43.192c11.211-19.906,23.917-42.47,42.313-61.796c5.029-5.284,10.568-10.088,16.497-14.337  C126.231,43.997,133.446,48,141.591,48c13.366,0,24.24-10.767,24.24-24c0-1.815-0.211-3.582-0.599-5.283  c38.964-8.333,79.489,3.78,106.672,32.165c27.032,28.228,42.539,69.912,43.662,117.376c1.168,49.344-13.609,102.105-41.61,148.582  c-6.051,8.581-11.608,11.322-16.521,8.118c-9.886-6.448-15.71-32.985-7.474-46.528c12.766-18.576,22.552-46.087,26.855-75.531  c4.692-32.104,2.215-62.504-6.976-85.597c-10.379-26.08-29.334-42.721-54.573-48.076c-18.859-3.363-37.348-2.953-53.339,0.812  c-11.505,2.745-21.869,7.268-30.514,13.483c-0.748,0.538-1.498,1.119-2.219,1.681c-14.04,10.964-22.907,26.523-25.681,45.193  c-0.006,0.033-0.01,0.066-0.014,0.1c-3.474,28.224,2.583,44.586,8.995,61.908c6.069,16.394,12.947,34.975,12.947,67.599  c0,2.209,1.791,4,4,4s4-1.791,4-4c0-34.057-7.143-53.353-13.444-70.376c-6.324-17.085-11.787-31.841-8.564-58.104  c2.141-14.341,8.004-26.237,17.464-35.483c4.977,21.104,14.368,37.38,23.494,53.153c13.205,22.825,25.678,44.385,25.678,79.811  c0,1.541,0.037,3.517,0.081,5.852c0.396,21.148,1.327,70.674-19.32,91.713c-6.222,6.34-13.769,9.422-23.072,9.422  c-27.241,0-37.164,14.94-46.76,29.39c-7.712,11.612-15.121,22.741-31.484,27.791c5.869-17.062,2.222-33.325-1.047-47.893  c-3.162-14.092-6.148-27.401-0.372-39.468c1.574-3.107,3.592-6.631,5.729-10.36C73.54,275,90.752,244.961,83.286,202.585  c9.395,9.296,23.466,27.928,25.98,57.751c0.187,2.202,2.133,3.813,4.322,3.65c2.201-0.187,3.836-2.121,3.65-4.322  c-4.17-49.44-36.926-70.208-38.318-71.067c-1.396-0.862-3.178-0.786-4.494,0.198c-1.316,0.982-1.897,2.668-1.468,4.253  c12.315,45.375-5.972,77.298-18.073,98.422c-2.189,3.821-4.257,7.432-5.963,10.803c-7.014,14.646-3.579,29.952-0.258,44.754  c3.49,15.555,7.091,31.62-0.593,48.2c-3.591,0.5-7.519,0.774-11.863,0.774c-2.209,0-4,1.791-4,4s1.791,4,4,4  c5.559,0,10.544-0.422,15.054-1.183c0.029-0.004,0.058-0.009,0.087-0.014c25.236-4.291,35.289-19.412,44.315-33.002  c9.199-13.853,17.146-25.815,40.096-25.815c11.402,0,21.086-3.977,28.782-11.818c22.999-23.436,22.024-75.313,21.608-97.467  c-0.043-2.274-0.079-4.2-0.079-5.701c0-37.573-13.601-61.082-26.754-83.816c-9.829-16.99-19.118-33.09-23.501-54.965  c0.092-0.067,0.177-0.137,0.269-0.203c6.686-4.807,14.541-8.5,23.24-11.035c2.134,25.887,12.75,40.54,21.569,48.377  c10.319,9.17,20.448,11.283,20.875,11.368c0.265,0.054,0.529,0.079,0.789,0.079c1.859,0,3.52-1.307,3.907-3.199  c0.442-2.158-0.951-4.27-3.107-4.721c-1.374-0.287-32.953-7.443-36.156-53.836c2.361-0.476,4.773-0.873,7.229-1.192l96.587,89.245  c1.398,38.926-9.793,81.25-26.177,106.563c-10.607-2.675-19.245,0.627-23.968,9.339c-4.107,7.578-4.939,19.044-2.362,31.153  c-32.069,43.041-68.943,73.506-83.414,84.677c-1.749,1.35-2.072,3.861-0.722,5.61c0.788,1.021,1.972,1.556,3.169,1.556  c0.854,0,1.714-0.271,2.441-0.834c14.184-10.949,49.513-40.111,81.271-81.385c3.917,10.889,10.159,20.148,17.662,25.98  c3.048,2.492,6.094,4.448,9.09,5.948c-10.685,13.148-22.539,25.685-35.319,37.311c-14.343,13.045-26.766,25.671-37.977,38.598  C135.707,474.595,111.715,496,80.867,496c-22.11,0-51.618-14.351-65.236-41.779c-0.983-1.978-3.383-2.784-5.362-1.804  c-1.979,0.982-2.786,3.383-1.804,5.362C23.531,488.123,56.292,504,80.867,504c33.953,0,59.263-22.295,99.89-69.14  c11.003-12.687,23.209-25.091,37.316-37.922c13.749-12.506,26.452-26.049,37.821-40.268c2.71,0.681,5.332,1.003,7.818,1.003  c6.551,0,12.169-2.18,16.029-5.566c8.584-7.53,9.397-20.388,2.303-33.228c18.525-31.299,31.241-65.314,37.371-99.28  c1.431,0.26,2.88,0.4,4.343,0.4C337.125,220,348,209.233,348,196S337.125,172,323.759,172z M141.591,40  c-8.955,0-16.241-7.178-16.241-16s7.286-16,16.241-16s16.24,7.178,16.24,16S150.546,40,141.591,40z M262.409,120.259  c0.242,0.607,0.455,1.236,0.686,1.851l-48.52-44.832C236.954,82.298,253.05,96.743,262.409,120.259z M185.265,74.974  c5.028-0.176,10.196-0.044,15.464,0.401l66.802,61.725c1.191,5.293,2.082,10.76,2.673,16.356L185.265,74.974z M274.466,346.094  c-5.806,5.093-17.833,5.841-30.519-4.554c-0.027-0.023-0.056-0.046-0.084-0.067c-16.612-12.879-23.179-43.329-15.955-56.656  c2.218-4.092,5.517-6.125,9.998-6.125c0.928,0,1.905,0.088,2.935,0.262c-6.621,17.105-0.908,44.14,12.225,52.705  c3.745,2.442,12.975,6.256,23.674-5.488C280.221,334.348,279.475,341.699,274.466,346.094z M323.759,212  c-1.019,0-2.031-0.096-3.029-0.286c1.598-10.623,2.535-21.218,2.807-31.703c0.074-0.001,0.148-0.011,0.222-0.011  c8.955,0,16.241,7.178,16.241,16S332.714,212,323.759,212z M36.337,446c-1.686,0-3.325-0.338-4.874-1.004  c-1.48-0.639-3.203-0.323-4.363,0.8c-1.159,1.122-1.531,2.832-0.941,4.335C30.417,460.986,40.769,468,52.53,468  c15.599,0,28.289-12.561,28.289-28s-12.69-28-28.289-28c-4.563,0-9.105,1.107-13.135,3.202c-1.438,0.747-2.282,2.286-2.14,3.899  c0.142,1.613,1.242,2.981,2.787,3.466c5.077,1.592,8.487,6.187,8.487,11.433C48.53,440.617,43.061,446,36.337,446z M50.849,420.066  c0.556-0.044,1.116-0.066,1.682-0.066c11.188,0,20.289,8.972,20.289,20s-9.102,20-20.289,20c-5.542,0-10.768-2.282-14.526-6.067  C48.363,453.09,56.53,444.472,56.53,434C56.53,428.647,54.416,423.705,50.849,420.066z"/><text x="0" y="519" fill="#000000" font-size="5px" font-weight="bold" font-family="'Helvetica Neue', Helvetica, Arial-Unicode, Arial, Sans-serif">Created by Amethyst Studio</text><text x="0" y="524" fill="#000000" font-size="5px" font-weight="bold" font-family="'Helvetica Neue', Helvetica, Arial-Unicode, Arial, Sans-serif">from the Noun Project</text></svg>